<svg width="391" height="391" viewBox="0 0 391 391" fill="none" xmlns="http://www.w3.org/2000/svg">
<path d="M331.214 68.878C305.904 57.036 278.841 48.4298 250.548 43.5293C247.073 49.8115 243.014 58.2613 240.215 64.983C210.138 60.4599 180.338 60.4599 150.815 64.983C148.016 58.2613 143.864 49.8115 140.359 43.5293C112.035 48.4298 84.9408 57.0677 59.6306 68.9407C8.57989 146.085 -5.25913 221.313 1.66039 295.473C35.5199 320.759 68.3339 336.119 100.594 346.17C108.559 335.208 115.663 323.555 121.783 311.273C110.128 306.844 98.9642 301.379 88.4161 295.034C91.2144 292.961 93.9517 290.793 96.5962 288.563C160.932 318.655 230.835 318.655 294.402 288.563C297.078 290.793 299.815 292.961 302.583 295.034C292.003 301.41 280.809 306.875 269.154 311.305C275.274 323.555 282.347 335.239 290.343 346.201C322.634 336.15 355.479 320.79 389.338 295.473C397.457 209.503 375.469 134.966 331.214 68.878ZM130.548 249.866C111.235 249.866 95.3967 231.836 95.3967 209.88C95.3967 187.924 110.897 169.863 130.548 169.863C150.2 169.863 166.037 187.892 165.699 209.88C165.73 231.836 150.2 249.866 130.548 249.866ZM260.451 249.866C241.138 249.866 225.299 231.836 225.299 209.88C225.299 187.924 240.799 169.863 260.451 169.863C280.102 169.863 295.94 187.892 295.602 209.88C295.602 231.836 280.102 249.866 260.451 249.866Z" fill="#00C58E"/>
</svg>
