<svg width="389" height="389" viewBox="0 0 389 389" fill="none" xmlns="http://www.w3.org/2000/svg">
<path d="M193.748 5.31836C86.7576 5.31836 0 92.0608 0 199.066C0 284.67 55.5146 357.295 132.497 382.914C142.179 384.707 145.735 378.711 145.735 373.593C145.735 368.974 145.554 353.71 145.472 337.521C91.57 349.241 80.1963 314.661 80.1963 314.661C71.383 292.267 58.6843 286.313 58.6843 286.313C41.1064 274.288 60.0093 274.534 60.0093 274.534C79.4654 275.901 89.7101 294.5 89.7101 294.5C106.99 324.121 135.035 315.557 146.091 310.607C147.829 298.083 152.851 289.538 158.391 284.699C115.358 279.799 70.1188 263.186 70.1188 188.948C70.1188 167.796 77.6876 150.511 90.0824 136.943C88.0705 132.062 81.4393 112.357 91.959 85.6697C91.959 85.6697 108.229 80.4622 145.254 105.53C160.707 101.236 177.282 99.0841 193.748 99.0111C210.213 99.0841 226.801 101.236 242.285 105.53C279.266 80.4622 295.512 85.6697 295.512 85.6697C306.058 112.357 299.424 132.062 297.412 136.943C309.834 150.511 317.351 167.794 317.351 188.948C317.351 263.362 272.026 279.749 228.884 284.544C235.833 290.557 242.025 302.349 242.025 320.424C242.025 346.347 241.8 367.211 241.8 373.593C241.8 378.749 245.287 384.791 255.11 382.888C332.049 357.24 387.494 284.642 387.494 199.066C387.494 92.0608 300.749 5.31836 193.748 5.31836Z" fill="#00C58E"/>
<path d="M72.5643 281.317C72.1388 282.279 70.6223 282.568 69.2441 281.908C67.8385 281.276 67.0484 279.963 67.5042 278.997C67.9221 278.006 69.4386 277.729 70.8411 278.395C72.2497 279.025 73.0521 280.351 72.5643 281.317ZM82.0948 289.82C81.1709 290.677 79.3642 290.279 78.1379 288.925C76.8706 287.574 76.6336 285.769 77.5711 284.898C78.5239 284.043 80.2759 284.443 81.5462 285.795C82.8135 287.161 83.0597 288.956 82.0933 289.822M88.6333 300.7C87.4451 301.525 85.5031 300.752 84.3042 299.029C83.1174 297.307 83.1174 295.24 84.33 294.412C85.5335 293.584 87.445 294.329 88.6607 296.038C89.8459 297.79 89.8459 299.857 88.6318 300.702M99.6894 313.302C98.6273 314.472 96.3662 314.159 94.7099 312.56C93.0172 310.998 92.5446 308.781 93.6098 307.609C94.6841 306.436 96.9588 306.766 98.6273 308.351C100.309 309.91 100.821 312.144 99.6894 313.302ZM113.979 317.556C113.513 319.073 111.334 319.763 109.139 319.118C106.948 318.454 105.514 316.676 105.956 315.143C106.412 313.616 108.6 312.897 110.811 313.587C112.999 314.248 114.435 316.012 113.979 317.556ZM130.244 319.36C130.299 320.958 128.437 322.284 126.134 322.312C123.817 322.363 121.943 321.069 121.919 319.498C121.919 317.884 123.738 316.572 126.053 316.534C128.357 316.488 130.244 317.772 130.244 319.36ZM146.221 318.748C146.497 320.307 144.895 321.908 142.609 322.334C140.36 322.744 138.278 321.782 137.991 320.237C137.711 318.638 139.343 317.038 141.587 316.623C143.879 316.225 145.929 317.163 146.221 318.748Z" fill="#00C58E"/>
</svg>
